<?xml version="1.0" encoding="UTF-8" standalone="no"?>
<!DOCTYPE svg PUBLIC "-//W3C//DTD SVG 1.1//EN" "http://www.w3.org/Graphics/SVG/1.1/DTD/svg11.dtd">
<svg width="100%" height="100%" viewBox="0 0 1000 1000" version="1.1" xmlns="http://www.w3.org/2000/svg" xmlns:xlink="http://www.w3.org/1999/xlink" xml:space="preserve" xmlns:serif="http://www.serif.com/" style="fill-rule:evenodd;clip-rule:evenodd;stroke-linejoin:round;stroke-miterlimit:2;">
    <g transform="matrix(1,0,0,1,-29200.8,-4023.92)">
        <g transform="matrix(1,0,0,1,18326,4023.92)">
            <rect id="idea-10---DARK" serif:id="idea 10-- DARK" x="10874.8" y="0" width="1000" height="1000" style="fill:none;"/>
            <g id="idea-10---DARK1" serif:id="idea 10-- DARK">
                <g transform="matrix(1,0,0,1,10892.1,-53.8696)">
                    <g transform="matrix(1291.67,0,0,1291.67,732.056,999.272)">
                    </g>
                    <text x="34.556px" y="999.272px" style="font-family:'Rajdhani-SemiBold', 'Rajdhani';font-weight:600;font-size:1291.67px;fill:rgb(236,80,66);">C</text>
                </g>
                <g transform="matrix(0.999999,0.00121791,-0.00121791,0.999999,11323.6,392.01)">
                    <g transform="matrix(625,0,0,625,478.097,439.375)">
                    </g>
                    <text x="135.597px" y="439.375px" style="font-family:'Rajdhani-SemiBold', 'Rajdhani';font-weight:600;font-size:625px;fill:rgb(209,69,55);">S</text>
                </g>
                <g transform="matrix(1,0,0,1,9940.49,-2982.26)">
                    <g transform="matrix(1,0,0,1.1,0,-342.97)">
                        <g transform="matrix(583.333,0,0,583.333,1424.28,3429.7)">
                        </g>
                        <text x="1268.53px" y="3429.7px" style="font-family:'Rajdhani-Bold', 'Rajdhani';font-weight:700;font-size:583.333px;fill:rgb(209,69,55);">I</text>
                    </g>
                </g>
            </g>
        </g>
    </g>
</svg>
